# xmcd
#
# Track frame offsets:
#	150
#	11600
#	22567
#	37149
#	53544
#	69103
#	86429
#	101383
#	113256
#
# Disc length: 1701 seconds
#
# Revision: 1
# Processed by: cddbd v1.5.1PL0 Copyright (c) Steve Scherf et al.
# Submitted via: audiograbber 1.81.03
#
DISCID=5206a309
DTITLE=Tincan Chris and Bottleneck Benj - Tincan Chris and Bottleneck Benj
DYEAR=2005
DGENRE=Country
TTITLE0=Running With the Land
TTITLE1=Joys of Riding a Bicycle
TTITLE2=I Am the One
TTITLE3=Living In the City
TTITLE4=Row By Row
TTITLE5=Burning Away
TTITLE6=Sand Creek
TTITLE7=Sailing the Shores
TTITLE8=The`Sun Can't Shine Forever
EXTD=
EXTT0=
EXTT1=
EXTT2=
EXTT3=
EXTT4=
EXTT5=
EXTT6=
EXTT7=
EXTT8=
PLAYORDER=
